<svg xmlns="http://www.w3.org/2000/svg" width="319.329" height="232.958" viewBox="0 0 319.329 232.958">
  <g id="Group_36" data-name="Group 36" transform="translate(-1545.829 -823.71)">
    <g id="Group_18" data-name="Group 18" transform="translate(3806.228 -787.474) rotate(-18)">
      <path id="Path_19" data-name="Path 19" d="M10,0H276.412a10,10,0,0,1,10,10V141.885a10,10,0,0,1-10,10H10a10,10,0,0,1-10-10V10A10,10,0,0,1,10,0Z" transform="translate(-2675 918)" fill="#70cdc5"/>
      <path id="Path_7" data-name="Path 7" d="M21.506-12.639a6.959,6.959,0,0,1,4.1,2.535,7.1,7.1,0,0,1,1.464,4.432A7.221,7.221,0,0,1,24.536.244Q22,2.326,17.259,2.326H1.965V-26.862H16.847a11.352,11.352,0,0,1,7.008,1.938,6.652,6.652,0,0,1,2.556,5.648,6.883,6.883,0,0,1-1.34,4.308A6.36,6.36,0,0,1,21.506-12.639ZM11.117-15.484h3.545a2.84,2.84,0,0,0,1.835-.495,1.867,1.867,0,0,0,.6-1.525,1.984,1.984,0,0,0-.6-1.587,2.758,2.758,0,0,0-1.835-.515H11.117ZM15.281-5.012a2.93,2.93,0,0,0,1.835-.474,1.856,1.856,0,0,0,.6-1.546q0-2.1-2.432-2.1H11.117v4.123ZM43.149,2.326,37.666-8.145h-.041V2.326H28.473V-26.862h13.6a13.428,13.428,0,0,1,6.06,1.257,8.733,8.733,0,0,1,3.772,3.422A9.545,9.545,0,0,1,53.167-17.3,8.679,8.679,0,0,1,51.539-12.1,8.951,8.951,0,0,1,46.86-8.846L53.208,2.326ZM37.625-14.247h3.628a2.864,2.864,0,0,0,1.979-.6,2.413,2.413,0,0,0,.66-1.876,2.409,2.409,0,0,0-.68-1.814,2.7,2.7,0,0,0-1.958-.66H37.625Zm35.5,12.162H63.391L61.948,2.326H52.343L63.02-26.862H73.574L84.21,2.326H74.563ZM70.894-8.97l-2.638-8.122L65.617-8.97Zm41.679,11.3h-9.152L93.734-12.351V2.326H84.581V-26.862h9.152l9.688,14.924V-26.862h9.152Zm14.594-29.188a16.648,16.648,0,0,1,8.018,1.855,13.022,13.022,0,0,1,5.3,5.153,15.038,15.038,0,0,1,1.855,7.5,15.186,15.186,0,0,1-1.855,7.5,13.354,13.354,0,0,1-5.3,5.256,16.211,16.211,0,0,1-8.018,1.917H115.006V-26.862Zm-.825,21.025a6.91,6.91,0,0,0,4.906-1.69,6.269,6.269,0,0,0,1.814-4.823,6.269,6.269,0,0,0-1.814-4.823,6.91,6.91,0,0,0-4.906-1.69h-2.185V-5.837ZM153.1-26.862V2.326h-9.152V-26.862ZM183.524,2.326h-9.152l-9.688-14.676V2.326h-9.152V-26.862h9.152l9.688,14.924V-26.862h9.152Zm20.324-19.211a3.545,3.545,0,0,0-1.525-1.34,5.5,5.5,0,0,0-2.391-.474,5.044,5.044,0,0,0-4.081,1.711,7.031,7.031,0,0,0-1.443,4.679A7.173,7.173,0,0,0,196.015-7.2a6.535,6.535,0,0,0,4.947,1.69,6.107,6.107,0,0,0,5.112-2.556h-7.3v-6.472H213.66v9.152A17.576,17.576,0,0,1,208.424.2a14.432,14.432,0,0,1-8.451,2.329A15.936,15.936,0,0,1,192.078.656,12.744,12.744,0,0,1,186.925-4.6a16.2,16.2,0,0,1-1.793-7.709,16.2,16.2,0,0,1,1.793-7.709,12.778,12.778,0,0,1,5.133-5.256,15.732,15.732,0,0,1,7.833-1.876,14.933,14.933,0,0,1,9.338,2.762,10.962,10.962,0,0,1,4.267,7.5ZM242.724,2.326,240.7.43a17.468,17.468,0,0,1-9.111,2.309,15.67,15.67,0,0,1-6.163-1.113,8.989,8.989,0,0,1-4.02-3.154,8.065,8.065,0,0,1-1.4-4.679,8.513,8.513,0,0,1,1.3-4.6,10.4,10.4,0,0,1,3.9-3.525,7.768,7.768,0,0,1-1.9-4.947,7.476,7.476,0,0,1,1.175-4.081,8.112,8.112,0,0,1,3.442-2.948,12.334,12.334,0,0,1,5.4-1.092,11.791,11.791,0,0,1,5.4,1.134,7.994,7.994,0,0,1,3.339,2.989,7.637,7.637,0,0,1,1.113,4H234.85a1.468,1.468,0,0,0-.453-1.175,1.587,1.587,0,0,0-1.072-.392,1.723,1.723,0,0,0-1.134.392,1.339,1.339,0,0,0-.474,1.092q0,1.319,1.814,3.051l6.637,6.431a16.5,16.5,0,0,0,1.031-2.515l.124-.371h8.864l-.412,1.072A32,32,0,0,1,245.9-4.353l6.885,6.679Zm-10.471-6.8a8.2,8.2,0,0,0,2.762-.453L230.15-9.465A3.4,3.4,0,0,0,229.1-8.331a2.673,2.673,0,0,0-.35,1.3,2.247,2.247,0,0,0,.928,1.814A4.022,4.022,0,0,0,232.253-4.476ZM11.117,16.534V45.722H1.965V16.534Zm14.594,0a16.648,16.648,0,0,1,8.018,1.855,13.022,13.022,0,0,1,5.3,5.153,15.038,15.038,0,0,1,1.855,7.5,15.185,15.185,0,0,1-1.855,7.5,13.353,13.353,0,0,1-5.3,5.256,16.211,16.211,0,0,1-8.018,1.917H13.549V16.534Zm-.825,21.025a6.91,6.91,0,0,0,4.906-1.69,6.269,6.269,0,0,0,1.814-4.823,6.269,6.269,0,0,0-1.814-4.823,6.91,6.91,0,0,0-4.906-1.69H22.7V37.559ZM51.642,23.831v3.587h9.07V34.3h-9.07v4.123H61.948v7.3H42.49V16.534H61.948v7.3ZM91.713,45.722H82.561L72.873,31.045V45.722H63.721V16.534h9.152l9.688,14.924V16.534h9.152Zm25.354-29.188v7.256h-7.75V45.722h-9.152V23.789H92.5V16.534Zm9.935,0V45.722h-9.152V16.534Zm25.354,0v7.256h-7.75V45.722h-9.152V23.789h-7.668V16.534Zm28.817,0L170.7,36.858v8.864H161.55V36.858L151.079,16.534H161.55l4.659,10.348,4.659-10.348ZM15.816,59.435a15.171,15.171,0,0,1,7.627,1.9,13.15,13.15,0,0,1,5.174,5.3,17.2,17.2,0,0,1-.021,15.5,13.469,13.469,0,0,1-5.174,5.318,14.929,14.929,0,0,1-7.606,1.917A15.042,15.042,0,0,1,8.19,87.448,13.393,13.393,0,0,1,3,82.109a17.074,17.074,0,0,1,0-15.48,13.288,13.288,0,0,1,5.194-5.3A15.171,15.171,0,0,1,15.816,59.435Zm0,2.68a12.558,12.558,0,0,0-6.287,1.5,10.109,10.109,0,0,0-4.081,4.267,15.485,15.485,0,0,0,0,12.966,10.175,10.175,0,0,0,4.1,4.308,12.451,12.451,0,0,0,6.266,1.525,12.336,12.336,0,0,0,6.246-1.525,10.313,10.313,0,0,0,4.1-4.329,13.949,13.949,0,0,0,1.443-6.472,13.791,13.791,0,0,0-1.443-6.472,10.238,10.238,0,0,0-4.1-4.267A12.471,12.471,0,0,0,15.816,62.114Zm.165,3.174A10.368,10.368,0,0,0,11.1,66.4a7.851,7.851,0,0,0-3.277,3.174,10.655,10.655,0,0,0,0,9.647A7.851,7.851,0,0,0,11.1,82.4a10.368,10.368,0,0,0,4.885,1.113,8.806,8.806,0,0,0,5.813-2.02,8.313,8.313,0,0,0,2.927-5.4H17.136q-.412,1.443-1.567,1.443a1.52,1.52,0,0,1-1.381-.783,6.061,6.061,0,0,1,0-4.7,1.52,1.52,0,0,1,1.381-.783q1.154,0,1.567,1.443h7.586a8.313,8.313,0,0,0-2.927-5.4A8.806,8.806,0,0,0,15.981,65.289ZM31.152,81.82a71.213,71.213,0,0,0,8.74-7.483q3.216-3.36,3.216-6.287a2.372,2.372,0,0,0-.433-1.525,1.387,1.387,0,0,0-1.134-.536,1.444,1.444,0,0,0-1.3.845,4.731,4.731,0,0,0-.35,2.577H31.029A12.506,12.506,0,0,1,32.7,63.1a9.354,9.354,0,0,1,4.02-3.628,12.709,12.709,0,0,1,5.442-1.154q5.277,0,7.73,2.535a8.952,8.952,0,0,1,2.453,6.493,13.02,13.02,0,0,1-2.659,7.812,23.839,23.839,0,0,1-6.658,6.163h9.441v7.379H31.152ZM53.5,68.422q.124-4.906,2.865-7.5t7.771-2.6A12.72,12.72,0,0,1,69.7,59.435a8.1,8.1,0,0,1,3.484,3.009,7.974,7.974,0,0,1,1.175,4.287,6.623,6.623,0,0,1-4.411,6.72v.165q4.947,1.855,4.947,6.885a8.741,8.741,0,0,1-1.237,4.659,8.249,8.249,0,0,1-3.525,3.133,12.273,12.273,0,0,1-5.421,1.113q-5.359,0-8.41-2.556t-3.133-8h8.9A3.651,3.651,0,0,0,62.5,81.1a2.005,2.005,0,0,0,1.793.763,1.586,1.586,0,0,0,1.237-.557,2.121,2.121,0,0,0,.495-1.464,2.092,2.092,0,0,0-.763-1.752,4.254,4.254,0,0,0-2.577-.6H61.165V70.112h1.484q2.8.165,2.8-2.226a2.271,2.271,0,0,0-.433-1.525,1.39,1.39,0,0,0-1.092-.495q-1.525,0-1.525,2.556Z" transform="translate(-2658.781 962.756)" fill="#0a0a0a"/>
      <path id="Polygon_1" data-name="Polygon 1" d="M14.646,0l2.125,6.175L21.5,1.7l-.967,6.463,6.253-1.746-3.838,5.27,6.342,1.381-5.829,2.87,4.978,4.192-6.486-.188,2.474,6.042-5.656-3.2-.6,6.508-3.531-5.483-3.531,5.483-.6-6.508-5.656,3.2,2.474-6.042-6.486.188L5.829,15.94,0,13.071l6.342-1.381L2.5,6.419,8.757,8.165,7.79,1.7l4.731,4.473Z" transform="translate(-2442.29 1021.065)" fill="#0a0a0a"/>
    </g>
  </g>
</svg>
