<svg xmlns="http://www.w3.org/2000/svg" width="385.891" height="150.18" viewBox="0 0 385.891 150.18">
  <g id="Group_31" data-name="Group 31" transform="translate(-46.524 -871.017)">
    <g id="Group_12" data-name="Group 12" transform="translate(2767.55 -365.342) rotate(-7)">
      <path id="Path_3" data-name="Path 3" d="M11.187,105.156A11.187,11.187,0,0,1,0,93.969V11.187A11.187,11.187,0,0,1,11.187,0h353.5a11.187,11.187,0,0,1,11.187,11.187V49.222a11.186,11.186,0,0,1-11.187,11.187h-9.172A11.247,11.247,0,0,0,344.555,71.6V87.257h0v6.712a11.186,11.186,0,0,1-11.187,11.187Z" transform="translate(-2857 941)" fill="#f2d20b"/>
      <g id="Group_11" data-name="Group 11" transform="translate(-2839.101 955.543)">
        <path id="Path_2" data-name="Path 2" d="M11.337-19.326v3.7h9.352v7.1H11.337v4.251H21.965V3.247H1.9v-30.1H21.965v7.524ZM47.811-15.16V-7.38H28V-15.16Zm3.358,3.316a17.024,17.024,0,0,1,1.807-7.949,13.05,13.05,0,0,1,5.165-5.42,15.569,15.569,0,0,1,7.907-1.934,16.08,16.08,0,0,1,6.993,1.467,12.922,12.922,0,0,1,5.016,4.145,15.022,15.022,0,0,1,2.572,6.249H70.681A5.384,5.384,0,0,0,68.747-17.6a5.085,5.085,0,0,0-2.869-.829,4.5,4.5,0,0,0-3.762,1.785,7.65,7.65,0,0,0-1.382,4.8,7.65,7.65,0,0,0,1.382,4.8,4.5,4.5,0,0,0,3.762,1.785,5.085,5.085,0,0,0,2.869-.829A5.384,5.384,0,0,0,70.681-8.4h9.947a15.022,15.022,0,0,1-2.572,6.249A12.922,12.922,0,0,1,73.04,1.993,16.08,16.08,0,0,1,66.048,3.46a15.569,15.569,0,0,1-7.907-1.934,13.05,13.05,0,0,1-5.165-5.42A17.024,17.024,0,0,1,51.169-11.844ZM96.952,3.545a15.63,15.63,0,0,1-7.8-2,14.954,14.954,0,0,1-5.633-5.526,15.34,15.34,0,0,1-2.083-7.949,15.34,15.34,0,0,1,2.083-7.949,14.8,14.8,0,0,1,5.633-5.505,15.762,15.762,0,0,1,7.8-1.977,15.644,15.644,0,0,1,7.779,1.977,14.685,14.685,0,0,1,5.59,5.505,15.462,15.462,0,0,1,2.062,7.949,15.462,15.462,0,0,1-2.062,7.949,14.8,14.8,0,0,1-5.611,5.526A15.548,15.548,0,0,1,96.952,3.545Zm0-8.8a5.37,5.37,0,0,0,4.336-1.807,7.284,7.284,0,0,0,1.53-4.867,7.353,7.353,0,0,0-1.53-4.91,5.37,5.37,0,0,0-4.336-1.807,5.42,5.42,0,0,0-4.379,1.807,7.353,7.353,0,0,0-1.53,4.91,7.284,7.284,0,0,0,1.53,4.867A5.42,5.42,0,0,0,96.952-5.255Zm53.265-21.6v30.1h-9.395V-11.759L136.189,3.247h-8.077l-4.634-15.006V3.247h-9.437v-30.1H125.6l6.632,18.067L138.7-26.85Zm38.684,0v30.1h-9.395V-11.759L174.873,3.247H166.8l-4.634-15.006V3.247h-9.437v-30.1h11.563L170.92-8.783l6.462-18.067Zm7.184,30.437a5.744,5.744,0,0,1-3.953-1.318,4.241,4.241,0,0,1-1.488-3.316,4.351,4.351,0,0,1,1.488-3.38,5.686,5.686,0,0,1,3.953-1.339A5.624,5.624,0,0,1,200-4.426a4.351,4.351,0,0,1,1.488,3.38A4.241,4.241,0,0,1,200,2.269,5.68,5.68,0,0,1,196.086,3.587ZM49.724,22.066v3.7h9.352v7.1H49.724v4.251H60.351v7.524H40.287v-30.1H60.351v7.524ZM81.351,44.639l-5.526-7.822-4.591,7.822H60.479l9.9-15.516L60.054,14.541h11.18l5.314,7.524,4.421-7.524H91.724L81.989,29.76,92.531,44.639Zm36.176-19.767a10.261,10.261,0,0,1-1.318,5.165,9.393,9.393,0,0,1-3.89,3.677,13.171,13.171,0,0,1-6.228,1.36h-3.741v9.565H92.914v-30.1h13.178q5.526,0,8.481,2.806A9.887,9.887,0,0,1,117.527,24.871Zm-12.5,2.763q2.933,0,2.933-2.763t-2.933-2.763h-2.678v5.526ZM128.2,22.066v3.7h9.352v7.1H128.2v4.251h10.628v7.524H118.76v-30.1h20.065v7.524Zm27.589,22.573-5.654-10.8h-.043v10.8h-9.437v-30.1h14.028a13.846,13.846,0,0,1,6.249,1.3,9,9,0,0,1,3.89,3.528,9.843,9.843,0,0,1,1.3,5.037,8.949,8.949,0,0,1-1.679,5.356,9.229,9.229,0,0,1-4.825,3.358l6.547,11.52Zm-5.7-17.089h3.741a2.953,2.953,0,0,0,2.04-.616,2.488,2.488,0,0,0,.68-1.934,2.484,2.484,0,0,0-.7-1.87,2.785,2.785,0,0,0-2.019-.68H150.09Zm26.739-13.008v30.1h-9.437v-30.1Zm11.945,7.524v3.7h9.352v7.1h-9.352v4.251H199.4v7.524H179.337v-30.1H199.4v7.524Zm41.32,22.573h-9.437L210.667,29.5V44.639h-9.437v-30.1h9.437l9.99,15.389V14.541h9.437Zm1.658-15.091a17.024,17.024,0,0,1,1.807-7.949,13.05,13.05,0,0,1,5.165-5.42,15.569,15.569,0,0,1,7.907-1.934,16.08,16.08,0,0,1,6.993,1.467,12.922,12.922,0,0,1,5.016,4.145,15.022,15.022,0,0,1,2.572,6.249h-9.947a5.384,5.384,0,0,0-1.934-2.317,5.085,5.085,0,0,0-2.869-.829,4.5,4.5,0,0,0-3.762,1.785,7.65,7.65,0,0,0-1.382,4.8,7.65,7.65,0,0,0,1.382,4.8,4.5,4.5,0,0,0,3.762,1.785,5.085,5.085,0,0,0,2.869-.829,5.384,5.384,0,0,0,1.934-2.317h9.947a15.022,15.022,0,0,1-2.572,6.249,12.922,12.922,0,0,1-5.016,4.145,16.08,16.08,0,0,1-6.993,1.467,15.569,15.569,0,0,1-7.907-1.934,13.05,13.05,0,0,1-5.165-5.42A17.024,17.024,0,0,1,231.752,29.547Zm40.555-7.482v3.7h9.352v7.1h-9.352v4.251h10.628v7.524H262.869v-30.1h20.065v7.524Zm24.231,22.87a14.845,14.845,0,0,1-8.906-2.529,9.317,9.317,0,0,1-3.8-7.418h10.032q.213,2.593,2.3,2.593a2.251,2.251,0,0,0,1.3-.361,1.267,1.267,0,0,0,.531-1.127,1.955,1.955,0,0,0-1.148-1.722,22.9,22.9,0,0,0-3.571-1.509,38.561,38.561,0,0,1-4.782-2,9.269,9.269,0,0,1-3.252-2.848,7.766,7.766,0,0,1-1.318-4.8,8.224,8.224,0,0,1,1.509-4.995,9.32,9.32,0,0,1,4.123-3.124,15.513,15.513,0,0,1,5.888-1.063q5.526,0,8.778,2.551a9.058,9.058,0,0,1,3.422,7.184h-10.16a2.523,2.523,0,0,0-.638-1.828,2.047,2.047,0,0,0-1.445-.553,1.288,1.288,0,0,0-.978.4,1.573,1.573,0,0,0-.383,1.127,1.93,1.93,0,0,0,1.127,1.679,25.841,25.841,0,0,0,3.592,1.594,40.669,40.669,0,0,1,4.7,2.04,9.948,9.948,0,0,1,3.209,2.721,6.9,6.9,0,0,1,1.36,4.379A8.923,8.923,0,0,1,302.7,43.7,14.236,14.236,0,0,1,296.537,44.936Z" transform="translate(-1.497 30.243)" fill="#0a0a0a"/>
        <path id="Subtraction_1" data-name="Subtraction 1" d="M16.781,33.56A16.78,16.78,0,0,1,4.915,4.915,16.78,16.78,0,1,1,28.645,28.645,16.67,16.67,0,0,1,16.781,33.56ZM8.988,8.95a1.718,1.718,0,0,0-1.717,1.716v10.3a1.718,1.718,0,0,0,1.717,1.716h6.006l-1.717,2.574v.858H20.14v-.858l-1.716-2.574H24.43a1.718,1.718,0,0,0,1.717-1.716v-10.3A1.718,1.718,0,0,0,24.43,8.95Zm15.443,10.3H8.988v-8.58H24.43v8.579Z" transform="translate(0 43.629)" fill="#0a0a0a"/>
        <path id="Subtraction_2" data-name="Subtraction 2" d="M117,33.56H15a15,15,0,0,1-15-15V15A15,15,0,0,1,15,0H117a15,15,0,0,1,15,15v3.56a15,15,0,0,1-15,15ZM98.141,8.949a1.607,1.607,0,0,0-1.307.731,1.455,1.455,0,0,0-.152,1.385l6.013,13.028a1.5,1.5,0,0,0,1.379.9,1.484,1.484,0,0,0,1.527-1.5V17.979h5.512a1.478,1.478,0,0,0,1.464-1.181,1.5,1.5,0,0,0-.863-1.726L98.686,9.059A1.409,1.409,0,0,0,98.141,8.949ZM87.089,20.459a2.186,2.186,0,0,0-1.562.574,1.889,1.889,0,0,0-.607,1.424,1.832,1.832,0,0,0,.607,1.392,2.207,2.207,0,0,0,1.562.563,2.183,2.183,0,0,0,1.542-.563,1.834,1.834,0,0,0,.606-1.392,1.892,1.892,0,0,0-.606-1.424A2.162,2.162,0,0,0,87.089,20.459ZM73.762,14.426h0l2.38,9.816h4.4l3.89-14.921h-3.91L78.354,20.183,75.8,9.321h-4L69.151,20.183,67,9.321h-3.89L66.9,24.242h4.4Zm-21.489,0h0l2.38,9.816h4.4l3.89-14.921H59.033L56.865,20.183,54.314,9.321h-4L47.661,20.183,45.515,9.321h-3.89l3.784,14.921h4.4Zm-21.488,0h0l2.38,9.816h4.4L41.455,9.321h-3.91L35.376,20.183,32.826,9.321h-4L26.173,20.183,24.026,9.321h-3.89L23.92,24.242h4.4Z" transform="translate(206.957 0)" fill="#0a0a0a"/>
      </g>
    </g>
  </g>
</svg>
