<svg xmlns="http://www.w3.org/2000/svg" width="193.428" height="74.735" viewBox="0 0 193.428 74.735">
  <g id="Group_27" data-name="Group 27" transform="translate(-40 -19.445)">
    <g id="Group_26" data-name="Group 26" transform="translate(107.024 19.445)">
      <g id="Group_25" data-name="Group 25">
        <path id="Path_18" data-name="Path 18" d="M9.247,3.309,5.931-2.71H5V3.309H1.116V-12.636H7.635a7.176,7.176,0,0,1,3.214.659,4.537,4.537,0,0,1,1.987,1.806,5.039,5.039,0,0,1,.659,2.555,4.746,4.746,0,0,1-.9,2.839A4.829,4.829,0,0,1,9.951-3.006l3.68,6.314ZM5-5.459H7.408a2.2,2.2,0,0,0,1.6-.522,1.972,1.972,0,0,0,.534-1.476,1.91,1.91,0,0,0-.534-1.431,2.2,2.2,0,0,0-1.6-.522H5Zm14.741-7.177V-3.1a3.156,3.156,0,0,0,.7,2.2,2.657,2.657,0,0,0,2.067.772A2.731,2.731,0,0,0,24.6-.893a3.093,3.093,0,0,0,.727-2.2v-9.54h3.884v9.517A6.766,6.766,0,0,1,28.3.492a5.818,5.818,0,0,1-2.442,2.226,7.679,7.679,0,0,1-3.418.75,7.487,7.487,0,0,1-3.373-.738A5.5,5.5,0,0,1,16.72.5a7.109,7.109,0,0,1-.863-3.623v-9.517Zm21.85,7.768a3.709,3.709,0,0,1,2.226,1.374,3.9,3.9,0,0,1,.84,2.464,3.917,3.917,0,0,1-1.4,3.169,5.893,5.893,0,0,1-3.9,1.17H31.938V-12.636h7.177a5.885,5.885,0,0,1,3.8,1.113A3.681,3.681,0,0,1,44.294-8.5a3.649,3.649,0,0,1-.738,2.339A3.818,3.818,0,0,1,41.591-4.868ZM35.822-6.185h2.544a2.252,2.252,0,0,0,1.465-.42,1.51,1.51,0,0,0,.511-1.238,1.544,1.544,0,0,0-.511-1.249,2.211,2.211,0,0,0-1.465-.432H35.822ZM38.684.174a2.3,2.3,0,0,0,1.51-.443,1.572,1.572,0,0,0,.534-1.283,1.643,1.643,0,0,0-.556-1.317,2.28,2.28,0,0,0-1.533-.477H35.822V.174ZM50.79-12.636V3.309H46.906V-12.636ZM67.87,3.309H63.986l-6.5-9.835V3.309H53.606V-12.636H57.49l6.5,9.88v-9.88H67.87ZM80.612.492H74.662l-.954,2.816H69.642l5.769-15.945h4.5L85.678,3.309H81.566Zm-1-3L77.637-8.343,75.684-2.506Z" transform="translate(-1.116 40.294)" fill="#eee5e0"/>
        <path id="Path_17" data-name="Path 17" d="M2.25-7.01h.966a1.555,1.555,0,0,1,1.76,1.76q0,.828-3.243,3.485A9.6,9.6,0,0,1,3.216,2.2q1.76,0,7.453-4.451h1q.518.069.518.483v.242A23.062,23.062,0,0,1,2.974,3.962,2.866,2.866,0,0,1,.007,5.929H-1.477V4.963A7.238,7.238,0,0,1,1.249,2.72q0-1.38-2.208-5.728v-.725Q-.2-7.01,2.25-7.01ZM1.008-3.49A4.12,4.12,0,0,0,2.974-5.768H2.767A2.493,2.493,0,0,0,1.008-3.49ZM26.092-35.613a1.652,1.652,0,0,0,.725.242v.276q0,.966-9.937,24.567L13.153-1.558h.242q0-.9,4.727-4.727h.966q1.518,0,1.518,1.449A68.205,68.205,0,0,1,17.4,3.134H17.6q1.691,0,7.246-5.693h1.242a.456.456,0,0,1,.449.483v.242Q20.951,4.652,17.6,4.652H16.362L15.12,4.376V3.41q0-1.208,3-7.211h-.276q-7.177,7.97-7.177,8.453H8.909q-.483,0-.483-.794L25.057-35.372A7.76,7.76,0,0,0,26.092-35.613ZM31.612-4.733h.725q.38,0,.725.725Q31.371-.627,30.37,1.961h.207Q34.89-2.49,36.063-2.49a2.115,2.115,0,0,0,.725.242v.725q-4.969,5.486-6.935,5.486h-.518q-1.449,0-1.449-1.242a2.351,2.351,0,0,0,.207-.759q-3.209,3-4.693,3H22.158A1.342,1.342,0,0,1,20.64,3.445q0-2.726,5.486-6.728h1.76a2.764,2.764,0,0,1,1.725.794A5.825,5.825,0,0,1,31.612-4.733ZM27.127-2.041q-4.209,3.623-4.209,5.762,1.311-.38,5.693-5.245A2.882,2.882,0,0,1,27.127-2.041ZM43.275-18.017h1.518v1.484a14.886,14.886,0,0,1-3,.725h-.725a.457.457,0,0,1-.518-.518Q40.549-16.671,43.275-18.017ZM37.34-6.6h.966q.38,0,.725.725V-5.6q0,.759-2.484,6.659V2.306a51.169,51.169,0,0,0,7.246-4.693H44a2.283,2.283,0,0,0,1.035.242v.725a22.441,22.441,0,0,1-8.695,5.486H35.58a1.327,1.327,0,0,1-1.518-1.484q0-1.725,2.76-7.936a1.9,1.9,0,0,1-.276-.759ZM66.634-52.555h1.242a.456.456,0,0,1,.449.483q0,.518-6.418,13.387Q52.177-18.81,45.241-.385q5.693-7.453,8.695-7.453H55.9q1.415,0,1.76,1v.725q0,2.381-5.21,5.486A11.438,11.438,0,0,1,48.968.1V.339q0,3.83,2.243,5.486h.518q2.588,0,10.9-8.488h.725a1.9,1.9,0,0,0,.794.276q0,1.449-4.969,5.728-4.209,3.8-7.453,3.933-3.174,0-4.52-3.45-.138-2.243-.725-2.243A159.872,159.872,0,0,0,36.3,21.973a2.218,2.218,0,0,1-1,.207h-.242q-.621,0-.725-.966Q50.728-21.708,65.116-50.07a.457.457,0,0,1-.518-.518Q64.6-50.9,66.634-52.555ZM48.45-1.144q3.692,0,7-4.727V-6.6Q52.591-6.6,48.45-1.144ZM78.261-35.613a1.652,1.652,0,0,0,.725.242v.276q0,.966-9.937,24.567L65.323-1.558h.242q0-.9,4.727-4.727h.966q1.518,0,1.518,1.449a68.2,68.2,0,0,1-3.209,7.97h.207q1.691,0,7.246-5.693h1.242a.456.456,0,0,1,.449.483v.242q-5.59,6.487-8.936,6.487H68.531l-1.242-.276V3.41q0-1.208,3-7.211h-.276q-7.177,7.97-7.177,8.453h-1.76q-.483,0-.483-.794L77.226-35.372A7.759,7.759,0,0,0,78.261-35.613Z" transform="translate(47.417 52.555)" fill="#6fccc5"/>
      </g>
    </g>
    <path id="Rectangle_33" data-name="Rectangle 33" d="M0,0H35A19,19,0,0,1,54,19v0A19,19,0,0,1,35,38H0a0,0,0,0,1,0,0V0A0,0,0,0,1,0,0Z" transform="translate(40 43)" fill="#eee5e0"/>
  </g>
</svg>
