<svg xmlns="http://www.w3.org/2000/svg" width="271.917" height="271.917" viewBox="0 0 271.917 271.917">
  <g id="Group_30" data-name="Group 30" transform="translate(-260.041 -564.041)">
    <g id="Group_5" data-name="Group 5" transform="translate(1237.585 924.107) rotate(-7)">
      <circle id="Ellipse_1" data-name="Ellipse 1" cx="122" cy="122" r="122" transform="translate(-930 -447)" fill="#6fccc5"/>
      <g id="Group_4" data-name="Group 4" transform="translate(0 9)">
        <text id="Design_Strategy" data-name="Design
Strategy" transform="translate(-806.971 -350.586)" fill="#0a0a0a" font-size="38" font-family="Poppins-Black, Poppins" font-weight="800" letter-spacing="-0.041em"><tspan x="-67.868" y="0">DESIGN</tspan><tspan x="-95.969" y="37">STRATEGY</tspan></text>
        <g id="Group_3" data-name="Group 3" transform="translate(0 -2)">
          <text id="aligning_your_business_user_needs" data-name="aligning
your     business
&amp;  user needs" transform="translate(-808 -291)" fill="#0a0a0a" font-size="17" font-family="Poppins-Regular, Poppins" letter-spacing="-0.041em"><tspan x="-36.32" y="0">ALIGNING</tspan><tspan x="-66.666" y="17" xml:space="preserve">YOUR     BUSINESS</tspan><tspan x="-54.859" y="34" xml:space="preserve">&amp;  USER NEEDS</tspan></text>
          <g id="Group_2" data-name="Group 2" transform="translate(1.423 0.602)">
            <line id="Line_1" data-name="Line 1" x2="9.06" transform="translate(-829 -280.102)" fill="none" stroke="#0a0a0a" stroke-width="1"/>
            <path id="Union_1" data-name="Union 1" d="M3.4,3.4,0,0,3.4,3.4l.226-.226L3.4,3.4l.226.226L3.4,3.4,0,6.8Z" transform="translate(-822.771 -283.5)" fill="none" stroke="#0a0a0a" stroke-width="1"/>
          </g>
        </g>
        <path id="Exclusion_1" data-name="Exclusion 1" d="M25.5,25A12.476,12.476,0,0,1,19,23.179,12.5,12.5,0,0,0,19,1.821,12.5,12.5,0,1,1,25.5,25Zm-13,0A12.5,12.5,0,0,1,3.661,3.661,12.506,12.506,0,0,1,19,1.821a12.5,12.5,0,0,0,0,21.359A12.476,12.476,0,0,1,12.5,25Z" transform="translate(-827 -415)" fill="#0a0a0a"/>
      </g>
    </g>
  </g>
</svg>
