<svg xmlns="http://www.w3.org/2000/svg" width="348.188" height="200.517" viewBox="0 0 348.188 200.517">
  <g id="Group_33" data-name="Group 33" transform="translate(-1104.406 -715.241)">
    <g id="Group_17" data-name="Group 17" transform="translate(3907.106 177.04) rotate(8)">
      <path id="Union_11" data-name="Union 11" d="M81.716,156.156a10,10,0,0,1-10-10V120.8a9.964,9.964,0,0,0-9.8-9.752v0H10a10,10,0,0,1-10-10V58.582a10,10,0,0,1,10-10H83.7a10.051,10.051,0,0,0,9.994-9.8h0V10a10,10,0,0,1,10-10H225.97a10,10,0,0,1,10,10V38.789a9.965,9.965,0,0,0,9.8,9.791v0h73.9a10,10,0,0,1,10,10v42.463a10,10,0,0,1-10,10H257.947v35.112a10,10,0,0,1-10,10Zm176.232-35.313v-9.8h10a10.05,10.05,0,0,0-9.994,9.8Z" transform="translate(-2679 920)" fill="#ec3c63"/>
      <path id="Union_12" data-name="Union 12" d="M126.367,121.877a9.632,9.632,0,0,1-3.934-7.67h10.373q.22,2.681,2.374,2.682a2.33,2.33,0,0,0,1.341-.374,1.309,1.309,0,0,0,.55-1.165,2.023,2.023,0,0,0-1.187-1.78,23.735,23.735,0,0,0-3.693-1.561,39.885,39.885,0,0,1-4.945-2.065A9.584,9.584,0,0,1,123.883,107a8.03,8.03,0,0,1-1.363-4.967,8.506,8.506,0,0,1,1.561-5.165,9.636,9.636,0,0,1,4.264-3.231,16.051,16.051,0,0,1,6.087-1.1q5.715,0,9.077,2.637a9.367,9.367,0,0,1,3.538,7.429H136.542a2.609,2.609,0,0,0-.659-1.891,2.117,2.117,0,0,0-1.495-.572,1.332,1.332,0,0,0-1.011.417,1.63,1.63,0,0,0-.4,1.165,2,2,0,0,0,1.165,1.736,26.718,26.718,0,0,0,3.714,1.648,42.116,42.116,0,0,1,4.856,2.11,10.278,10.278,0,0,1,3.319,2.813,7.135,7.135,0,0,1,1.406,4.527,9.226,9.226,0,0,1-5.495,8.659,14.722,14.722,0,0,1-6.373,1.274A15.346,15.346,0,0,1,126.367,121.877Zm41.581.528a13.588,13.588,0,0,1-5.495-5.6,18.622,18.622,0,0,1,0-16.44,13.624,13.624,0,0,1,5.473-5.6,16.77,16.77,0,0,1,8.351-2,15.922,15.922,0,0,1,9.956,2.945,11.685,11.685,0,0,1,4.549,8H180.5a3.78,3.78,0,0,0-1.626-1.428,5.857,5.857,0,0,0-2.55-.5,5.379,5.379,0,0,0-4.352,1.824,7.5,7.5,0,0,0-1.539,4.989q0,3.648,1.715,5.451t5.275,1.8a6.512,6.512,0,0,0,5.45-2.725h-7.78v-6.9h15.868v9.758a18.733,18.733,0,0,1-5.582,5.956,15.383,15.383,0,0,1-9.011,2.484A16.987,16.987,0,0,1,167.948,122.4Zm44.812,1.78-10.329-15.648v15.648h-9.758V93.065h9.758l10.329,15.911V93.065h9.759v31.12Zm-63.691,0V93.065h9.759v31.12Zm-48.307,0V93.065H121.51v7.78H110.52v3.824h9.67v7.34h-9.67v4.4H121.51v7.78Zm-30.857,0V93.065H82.873a17.748,17.748,0,0,1,8.549,1.978,13.874,13.874,0,0,1,5.648,5.494,17.167,17.167,0,0,1,0,16,14.236,14.236,0,0,1-5.648,5.6,17.3,17.3,0,0,1-8.549,2.044Zm9.758-8.7h2.33a7.37,7.37,0,0,0,5.231-1.8,7.807,7.807,0,0,0,0-10.286,7.37,7.37,0,0,0-5.231-1.8h-2.33ZM247.414,76.136a13.486,13.486,0,0,1-5.341-5.6,17.6,17.6,0,0,1-1.868-8.219,17.606,17.606,0,0,1,1.868-8.22,13.486,13.486,0,0,1,5.341-5.6,16.1,16.1,0,0,1,8.175-2A16.629,16.629,0,0,1,262.821,48a13.363,13.363,0,0,1,5.186,4.286,15.536,15.536,0,0,1,2.66,6.462H260.382a5.572,5.572,0,0,0-2-2.4,5.268,5.268,0,0,0-2.967-.857,4.655,4.655,0,0,0-3.89,1.846,7.912,7.912,0,0,0-1.428,4.968,7.911,7.911,0,0,0,1.428,4.967,4.655,4.655,0,0,0,3.89,1.846,5.259,5.259,0,0,0,2.967-.857,5.575,5.575,0,0,0,2-2.4h10.285a15.537,15.537,0,0,1-2.66,6.461,13.354,13.354,0,0,1-5.186,4.286,16.63,16.63,0,0,1-7.231,1.517A16.1,16.1,0,0,1,247.414,76.136Zm24.966,1.78V46.8h20.747v7.78H282.139V58.4h9.669v7.34h-9.669v4.4h10.988v7.78Zm-43.647,0L218.4,62.268V77.916h-9.758V46.8H218.4l10.33,15.912V46.8h9.758v31.12Zm-42.724,0V46.8h20.746v7.78H195.767V58.4h9.67v7.34h-9.67v4.4h10.988v7.78Zm-12.352,0V46.8h9.759v31.12Zm-54.231,0L113.58,66.752h-.044V77.916h-9.758V46.8h14.5a14.311,14.311,0,0,1,6.462,1.341,9.308,9.308,0,0,1,4.022,3.648,10.175,10.175,0,0,1,1.341,5.209,9.256,9.256,0,0,1-1.736,5.538A9.54,9.54,0,0,1,123.382,66l6.769,11.912Zm-5.89-17.67H117.4a3.053,3.053,0,0,0,2.109-.637,3.063,3.063,0,0,0-.022-3.934,2.88,2.88,0,0,0-2.087-.7h-3.869Zm-32.4,17.67V46.8h20.747v7.78H90.9V58.4h9.67v7.34H90.9v4.4h10.988v7.78Zm-26.725,0V46.8H68.043q5.714,0,8.769,2.9a10.221,10.221,0,0,1,3.055,7.78A10.605,10.605,0,0,1,78.5,62.818a9.709,9.709,0,0,1-4.022,3.8,13.616,13.616,0,0,1-6.44,1.406H64.175v9.89Zm9.759-17.581h2.769q3.033,0,3.033-2.858T66.944,54.62H64.175ZM42.461,77.916l-5.714-8.087L32,77.916H20.879L31.12,61.872,20.747,47.231v7.345H9.758V58.4h9.67v7.34H9.758v4.4H20.747v7.78H0V46.8H32l5.495,7.78,4.571-7.78h11.12L43.12,62.532l10.9,15.383Zm93.387-10.41V61.722h30.075v5.783ZM127.4,29.34a9.632,9.632,0,0,1-3.934-7.669h10.373q.22,2.681,2.374,2.681a2.33,2.33,0,0,0,1.341-.374,1.309,1.309,0,0,0,.55-1.165,2.023,2.023,0,0,0-1.187-1.78,23.69,23.69,0,0,0-3.693-1.561,39.885,39.885,0,0,1-4.945-2.065,9.583,9.583,0,0,1-3.363-2.945,8.028,8.028,0,0,1-1.363-4.967,8.506,8.506,0,0,1,1.561-5.165,9.632,9.632,0,0,1,4.264-3.23A16.033,16.033,0,0,1,135.466,0q5.714,0,9.076,2.637a9.364,9.364,0,0,1,3.539,7.429H137.575a2.609,2.609,0,0,0-.659-1.891,2.117,2.117,0,0,0-1.495-.572,1.331,1.331,0,0,0-1.011.418,1.626,1.626,0,0,0-.4,1.164,2,2,0,0,0,1.165,1.736,26.7,26.7,0,0,0,3.714,1.649,41.949,41.949,0,0,1,4.856,2.109,10.291,10.291,0,0,1,3.319,2.813,7.137,7.137,0,0,1,1.406,4.527,9.227,9.227,0,0,1-5.494,8.659,14.73,14.73,0,0,1-6.374,1.275A15.346,15.346,0,0,1,127.4,29.34Zm-26.461,1.034a11.278,11.278,0,0,1-4.769-4.7,15.6,15.6,0,0,1-1.715-7.6V.528h9.714V18.065a5.535,5.535,0,0,0,.945,3.407,3.58,3.58,0,0,0,3.055,1.252,3.77,3.77,0,0,0,3.12-1.252,5.271,5.271,0,0,0,1.011-3.407V.528h9.715V18.065a14.726,14.726,0,0,1-1.847,7.583,11.831,11.831,0,0,1-5.054,4.725,15.985,15.985,0,0,1-7.166,1.582A15.028,15.028,0,0,1,100.939,30.373Zm87.449,1.274-5.845-11.164H182.5V31.648h-9.758V.528h14.5a14.325,14.325,0,0,1,6.462,1.34,9.31,9.31,0,0,1,4.022,3.649,10.171,10.171,0,0,1,1.341,5.208,9.251,9.251,0,0,1-1.736,5.538,9.547,9.547,0,0,1-4.989,3.473l6.769,11.912Zm-5.89-17.67h3.869a3.05,3.05,0,0,0,2.11-.638,2.573,2.573,0,0,0,.7-2,2.564,2.564,0,0,0-.726-1.933,2.875,2.875,0,0,0-2.087-.7H182.5ZM150.1,31.648V.528h20.746v7.78H159.861v3.824h9.67v7.34h-9.67v4.4h10.988v7.78Z" transform="translate(-2660.493 938.091)" fill="#eee5e0" stroke="rgba(0,0,0,0)" stroke-miterlimit="10" stroke-width="1"/>
    </g>
  </g>
</svg>
